<svg width="66" height="65" viewBox="0 0 66 65" fill="none" xmlns="http://www.w3.org/2000/svg">
<rect width="66" height="65" rx="10" fill="#F6F8FF"/>
<path d="M26.6112 26.1499L26.8387 26.1304C26.9248 26.1207 27.0028 26.0898 27.0678 26.0443L27.0662 26.0459C27.284 26.7967 27.5505 27.5865 27.8836 28.4136C28.311 29.4959 28.7319 30.3848 29.2031 31.2428L29.1381 31.1128C29.0991 31.7043 29.052 32.3121 28.9903 32.9004C28.961 33.2628 28.8895 33.6008 28.7806 33.9193L28.7888 33.89C28.7693 33.8982 28.7416 37.2701 28.7416 37.2701C28.7433 39.4688 30.2659 41.31 32.3135 41.7992L32.346 41.8057C32.4386 41.57 32.6629 41.4059 32.9261 41.4059H33.8589C34.1206 41.4091 34.3448 41.5716 34.4374 41.8008L34.4391 41.8057C36.524 41.3149 38.0532 39.4737 38.0613 37.2734C38.0613 37.2734 38.0044 33.9144 37.9752 33.8917C37.8858 33.6073 37.8143 33.2725 37.7769 32.928L37.7753 32.9036C37.7184 32.3121 37.681 31.719 37.6274 31.1161C38.0288 30.3913 38.4497 29.504 38.8202 28.5891L38.882 28.4169C39.2151 27.5897 39.4735 26.8016 39.6994 26.0492C39.7627 26.0947 39.8407 26.1255 39.9252 26.1353H39.9269L40.156 26.1548C40.4323 26.184 40.676 25.9565 40.6988 25.6039L40.9458 22.4659C40.9458 22.4643 40.9458 22.4627 40.9458 22.4627C40.9458 22.1978 40.7475 21.98 40.4924 21.9475H40.4891H40.4615C40.5249 21.4909 40.5606 20.9644 40.5606 20.4297C40.5606 19.2629 40.3884 18.1352 40.0682 17.074L40.0894 17.1569C39.1517 15.0996 37.2927 13.6061 35.0533 13.1885L35.0111 13.182C34.5301 13.0829 33.9694 13.0163 33.3974 13H33.3828H33.3633C32.7799 13.0114 32.2192 13.0764 31.6765 13.1918L31.735 13.182C29.4567 13.611 27.6008 15.1044 26.6746 17.113L26.6567 17.1569C26.3544 18.1319 26.1806 19.2532 26.1806 20.4135C26.1806 20.9546 26.2179 21.4876 26.2911 22.0077L26.2846 21.9475C26.0262 21.9768 25.8263 22.1929 25.8263 22.4562V22.4675L26.0733 25.6055C26.0961 25.9663 26.3431 26.184 26.6096 26.1548L26.6112 26.1499Z" fill="#F7DECE"/>
<path d="M50.8034 46.9176C50.6897 41.9775 50.1957 40.8594 49.9292 40.1022C49.8235 39.7983 49.7374 37.7442 46.3443 36.4117C44.2642 35.5927 41.5796 35.5764 39.3078 34.616V37.2876C39.3029 40.1607 37.2456 42.5511 34.5237 43.0728L33.1473 43.0598C32.9051 43.5798 36.8039 43.4967 36.5 43.5L33 44L32 46.5C32 48.4696 35.4451 49.1797 37.4146 49.1797C39.3842 49.1797 40.98 47.5839 40.98 45.6143V44.2071C39.992 44.0592 44.5 43.5173 44.5 42.5C44.5 41.3803 44.3803 42 45.5 42C46.6197 42 43.2989 41.0805 43.2989 42.2001C43.2989 43.0874 41.793 43.2237 41 43.5L39.3645 44.2071L40 45.5H39.5C39.5 47.9896 39.9896 48.5 37.5 48.5C38.5 47.5 32 48.9896 32 46.5C32 46.4724 32.9051 45.6371 32.9051 45.6095V45.6127L36.5 43.5C36.2107 43.4805 33.1928 43.3393 33.1473 43.0598H32.3364C29.59 42.5251 27.5424 40.1428 27.5359 37.2811V34.5884C25.2544 35.5683 22.5535 35.5878 20.4621 36.4084C17.0592 37.7394 16.9812 39.7885 16.8772 40.0973C16.6172 40.8578 16.1167 41.971 16.003 46.9144C15.9835 47.5644 16.003 48.5606 17.9628 49.4316C22.2302 51.1054 27.7277 51.6254 33.1473 51.9992H33.6673C39.0982 51.6287 44.5876 51.1103 48.8517 49.4316C50.8034 48.5654 50.8213 47.5742 50.8034 46.9176Z" fill="#EFBF04"/>
</svg>
