<svg width="24" height="24" viewBox="0 0 24 24" fill="none" xmlns="http://www.w3.org/2000/svg">
<mask id="mask0_1_1023" style="mask-type:luminance" maskUnits="userSpaceOnUse" x="0" y="0" width="24" height="24">
<path d="M24 0H0V24H24V0Z" fill="white"/>
</mask>
<g mask="url(#mask0_1_1023)">
<path fill-rule="evenodd" clip-rule="evenodd" d="M9.00171 0C5.96414 0 3.50171 2.46243 3.50171 5.5C3.50171 8.53757 5.96414 11 9.00171 11C12.0393 11 14.5017 8.53757 14.5017 5.5C14.5017 2.46243 12.0393 0 9.00171 0ZM5.50171 5.5C5.50171 3.567 7.06871 2 9.00171 2C10.9347 2 12.5017 3.567 12.5017 5.5C12.5017 7.433 10.9347 9 9.00171 9C7.06871 9 5.50171 7.433 5.50171 5.5Z" fill="#EFBF04"/>
<path d="M15.4983 0C14.946 0 14.4983 0.447715 14.4983 1C14.4983 1.55228 14.946 2 15.4983 2C17.4313 2 18.9983 3.567 18.9983 5.5C18.9983 7.433 17.4313 9 15.4983 9C14.946 9 14.4983 9.44771 14.4983 10C14.4983 10.5523 14.946 11 15.4983 11C18.5359 11 20.9983 8.53757 20.9983 5.5C20.9983 2.46243 18.5359 0 15.4983 0Z" fill="#EFBF04"/>
<path d="M19.0822 14.0164C19.3033 13.5103 19.8928 13.2793 20.3989 13.5004C22.5159 14.4253 23.9985 16.5387 23.9985 19.0007V21.0007C23.9985 21.553 23.5508 22.0007 22.9985 22.0007C22.4462 22.0007 21.9985 21.553 21.9985 21.0007V19.0007C21.9985 17.362 21.013 15.9512 19.5981 15.3331C19.092 15.112 18.861 14.5224 19.0822 14.0164Z" fill="#EFBF04"/>
<path d="M6 13.001C2.68629 13.001 0 15.6873 0 19.001V21.001C0 21.5533 0.447715 22.001 1 22.001C1.55228 22.001 2 21.5533 2 21.001V19.001C2 16.7919 3.79086 15.001 6 15.001H12C14.2091 15.001 16 16.7919 16 19.001V21.001C16 21.5533 16.4477 22.001 17 22.001C17.5523 22.001 18 21.5533 18 21.001V19.001C18 15.6873 15.3137 13.001 12 13.001H6Z" fill="#EFBF04"/>
</g>
</svg>
