<svg width="154" height="46" viewBox="0 0 154 46" fill="none" xmlns="http://www.w3.org/2000/svg">
<path d="M22.9997 0C35.7026 0 45.9997 10.2971 45.9997 23V39.1C45.9997 40.93 45.2728 42.685 43.9788 43.979C42.6848 45.273 40.9297 46 39.0997 46H24.1497V35.9099C24.1497 33.6076 24.29 31.2225 25.4975 29.2629C26.362 27.8586 27.5185 26.6566 28.8884 25.7385C30.2583 24.8204 31.8096 24.2077 33.4371 23.9419L33.8776 23.8706C34.0592 23.8085 34.2168 23.6912 34.3284 23.5351C34.44 23.379 34.5 23.1919 34.5 23C34.5 22.8081 34.44 22.621 34.3284 22.4649C34.2168 22.3088 34.0592 22.1915 33.8776 22.1294L33.4371 22.0581C31.0591 21.6697 28.8632 20.5441 27.1594 18.8403C25.4556 17.1365 24.3301 14.9406 23.9416 12.5626L23.8703 12.1222C23.8082 11.9406 23.6909 11.7829 23.5348 11.6713C23.3787 11.5597 23.1916 11.4997 22.9997 11.4997C22.8078 11.4997 22.6208 11.5597 22.4647 11.6713C22.3086 11.7829 22.1913 11.9406 22.1292 12.1222L22.0579 12.5626C21.7922 14.1902 21.1795 15.7415 20.2614 17.1114C19.3433 18.4814 18.1412 19.6378 16.7368 20.5022C14.7772 21.7097 12.3921 21.85 10.0898 21.85H0.0273438C0.628794 9.68185 10.6832 0 22.9997 0Z" fill="#EFBF04"/>
<path d="M0 24.15H10.0901C12.3924 24.15 14.7775 24.2903 16.7371 25.4978C18.2689 26.4417 19.5583 27.7311 20.5022 29.2629C21.7097 31.2225 21.85 33.6076 21.85 35.9099V46H6.9C5.07001 46 3.31496 45.273 2.02096 43.979C0.726962 42.685 0 40.93 0 39.1L0 24.15ZM46 2.3C46 2.91 45.7577 3.49501 45.3263 3.92635C44.895 4.35768 44.31 4.6 43.7 4.6C43.09 4.6 42.505 4.35768 42.0737 3.92635C41.6423 3.49501 41.4 2.91 41.4 2.3C41.4 1.69 41.6423 1.10499 42.0737 0.673654C42.505 0.242321 43.09 0 43.7 0C44.31 0 44.895 0.242321 45.3263 0.673654C45.7577 1.10499 46 1.69 46 2.3Z" fill="#EFBF04"/>
<path d="M65.364 37V13.608H70.022V37H65.364ZM57.748 17.212V13.098H77.638V17.212H57.748ZM76.9681 37V20.578H81.4221V37H76.9681ZM81.4221 27.922L79.6881 26.766C79.8921 24.7487 80.4814 23.162 81.4561 22.006C82.4308 20.8273 83.8361 20.238 85.6721 20.238C86.4654 20.238 87.1794 20.374 87.8141 20.646C88.4488 20.8953 89.0268 21.3147 89.5481 21.904L86.7601 25.1C86.5108 24.828 86.2048 24.624 85.8421 24.488C85.5021 24.352 85.1054 24.284 84.6521 24.284C83.7001 24.284 82.9181 24.59 82.3061 25.202C81.7168 25.7913 81.4221 26.698 81.4221 27.922ZM91.1126 37V20.578H95.6006V37H91.1126ZM93.3566 17.926C92.6313 17.926 92.0306 17.688 91.5546 17.212C91.0786 16.7133 90.8406 16.1013 90.8406 15.376C90.8406 14.6733 91.0786 14.0727 91.5546 13.574C92.0306 13.0753 92.6313 12.826 93.3566 12.826C94.1046 12.826 94.7053 13.0753 95.1586 13.574C95.6346 14.0727 95.8726 14.6733 95.8726 15.376C95.8726 16.1013 95.6346 16.7133 95.1586 17.212C94.7053 17.688 94.1046 17.926 93.3566 17.926ZM99.5462 37V20.578H104V37H99.5462ZM110.256 37V27.31C110.256 26.358 109.95 25.6213 109.338 25.1C108.749 24.556 108.012 24.284 107.128 24.284C106.539 24.284 106.006 24.4087 105.53 24.658C105.054 24.8847 104.68 25.2247 104.408 25.678C104.136 26.1313 104 26.6753 104 27.31L102.266 26.46C102.266 25.1907 102.538 24.0913 103.082 23.162C103.649 22.2327 104.408 21.5187 105.36 21.02C106.312 20.4987 107.389 20.238 108.59 20.238C109.724 20.238 110.755 20.4987 111.684 21.02C112.614 21.5187 113.35 22.2327 113.894 23.162C114.438 24.0687 114.71 25.168 114.71 26.46V37H110.256ZM120.966 37V27.31C120.966 26.358 120.66 25.6213 120.048 25.1C119.459 24.556 118.722 24.284 117.838 24.284C117.272 24.284 116.739 24.4087 116.24 24.658C115.764 24.8847 115.39 25.2247 115.118 25.678C114.846 26.1313 114.71 26.6753 114.71 27.31L112.16 26.698C112.251 25.3833 112.602 24.25 113.214 23.298C113.826 22.3233 114.631 21.5753 115.628 21.054C116.626 20.51 117.736 20.238 118.96 20.238C120.184 20.238 121.284 20.4987 122.258 21.02C123.233 21.5187 124.004 22.244 124.57 23.196C125.137 24.148 125.42 25.2813 125.42 26.596V37H120.966ZM129.031 37V12.418H133.485V37H129.031ZM142.599 37.136L135.731 20.578H140.559L145.115 33.226H143.483L148.209 20.578H153.071L145.761 37.136H142.599ZM138.043 43.868L143.041 33.294L145.761 37.136L142.769 43.868H138.043Z" fill="#171717"/>
</svg>
